<?xml version="1.0" encoding="UTF-8"?>
<svg id="Layer_1" xmlns="http://www.w3.org/2000/svg" version="1.1" viewBox="0 0 2000 500">
  <!-- Generator: Adobe Illustrator 30.1.0, SVG Export Plug-In . SVG Version: 2.1.1 Build 136)  -->
  <defs>
    <style>
      .st0 {
        fill: #ffffff;
      }
    </style>
  </defs>
  <g>
    <path class="st0" d="M697.6,99.27l-70.49-70.49h-102.54l-72.01,72.01v72.19l10.75,10.79-10.75,10.81v72.18l70.47,70.5h105.42l69.14-69.12v-75.06l-9.33-9.36,9.33-9.37v-75.07M575.77,315.66l-85.01-84.98,9.72-9.77,22.56,22.57h105.42l22.64-22.63,9.73,9.72-85.06,85.08ZM537.65,183.76l38.19-38.18,38.11,38.12-38.18,38.18-38.12-38.12ZM651.1,146.51l-23.99-23.97h-102.54l-24.1,24.1-9.72-9.75,85.08-85.08,84.99,84.99-9.73,9.7Z"/>
    <path class="st0" d="M138.4,435.76c0,11.59-1.27,17.75-5.68,21.95-5.68,5.48-11.16,6.68-24.09,6.68l-35.63-.1-1.69.48c-.58.5-.79,1.07-.79,1.97v16.73h-22.13v-73.91h60.53c12.33,0,18.6.27,22.91,4.97,5.1,5.51,6.56,8.9,6.56,21.24M107.87,446.58c2.63,0,4.99-.14,6.64-2.48,1.96-2.45,2.48-4.31,2.48-7.52,0-2.36.67-4.82-2.57-7.78-2.62-2.39-4.6-1.93-6.96-1.93h-34.26l-1.69.5-.48,1.84v15.09l.48,1.68,1.87.59h34.5Z"/>
    <path class="st0" d="M160.45,477.59c-4.7-5.08-6.86-9.21-6.86-15.95v-52.09h21.84v46.97c0,9.91,19.38,9.02,27.01,9.02,7,0,23.24,1.08,23.24-8.61v-47.38h22.52v52.09c0,6.34-1.74,9.89-5.87,15.07-6.28,7.88-28.79,6.55-39.78,6.55-12.32,0-35.45,1.56-42.1-5.68"/>
    <path class="st0" d="M351.76,414.31c3.6,4.14,3.71,7.95,3.71,13.34s-.48,10.78-2.23,13.31c-2.75,4.12-7.46,4.23-7.46,5.7,0,1.35,5.11.77,7.53,3.44,3.84,4.09,4.5,7.42,4.5,12.69,0,6.98-.37,12.36-5.66,16.96-4.29,3.7-14.91,3.7-23.32,3.7h-64.64v-73.91h63.57c9.48,0,19.78,0,24,4.76M335.2,432.95c0-3.82-2.25-7.16-6.65-7.16h-42.92v13.3h42.92c4.68,0,6.65-2.63,6.65-6.15ZM337.84,460.16c0-4.59-2.35-6.95-9.28-6.95h-42.92v13.22h43.39c6.76,0,8.81-2.14,8.81-6.27Z"/>
    <polyline class="st0" points="448.6 466.06 448.69 483.46 371.44 483.46 371.44 409.55 393.97 409.55 394.06 466.06 448.6 466.06"/>
    <rect class="st0" x="463.8" y="409.55" width="22.51" height="73.91"/>
    <path class="st0" d="M594.18,455.57s1.55,14.91-4.51,21.05c-5.36,5.5-24.38,6.77-41.04,6.77s-36.72-.82-41.04-6.87c-6.55-9.42-5.67-19.23-5.67-29.95,0-11.56.1-23.23,6.28-30.87,4.33-5.28,24.17-6.15,40.43-6.15s34.97,1.14,39.2,5.98c6.15,7.1,5.09,19.59,5.09,19.59l-20.48.06s.77-3.11-2.03-6.38c-2.85-2.32-12.26-2.04-21.78-2.04-10.07,0-19.67-.35-22.6,3.24-3.32,4.21-3.43,10.28-3.43,16.36,0,5.68-.69,11.16,3.24,16.17,2.63,3.31,13.03,3.12,22.8,3.12s18.21.69,22.06-2.26c3.03-3.03,2.62-7.82,2.62-7.82h20.87"/>
    <path class="st0" d="M740.78,414.31c3.64,4.14,3.72,7.95,3.72,13.34s-.51,10.78-2.25,13.31c-2.76,4.12-7.44,4.23-7.44,5.7,0,1.35,5.1.77,7.52,3.44,3.82,4.09,4.53,7.42,4.53,12.69,0,6.98-.41,12.36-5.69,16.96-4.3,3.7-14.88,3.7-23.32,3.7h-64.61v-73.91h63.55c9.5,0,19.78,0,23.99,4.76M724.21,432.95c0-3.82-2.24-7.16-6.66-7.16h-42.87v13.3h42.87c4.7,0,6.66-2.63,6.66-6.15ZM726.87,460.16c0-4.59-2.34-6.95-9.32-6.95h-42.87v13.22h43.35c6.77,0,8.84-2.14,8.84-6.27Z"/>
    <path class="st0" d="M754.41,483.46l40.64-73.91h34.35l38.8,73.91h-24.39l-7.36-14.78h-49.93l-8.12,14.78h-24M795.05,453.32l1.67,1.06h30.14l1.6-.57.18-2.17-12.65-25.34-.86-1.09-1.28-.32h-2.83l-1.45.24-.8,1.27-13.22,24.85-.5,2.07Z"/>
    <path class="st0" d="M907.57,429.71c-1.25-1.84-1.53-1.97-3.68-1.97-1.77,0-1.77.69-1.77,2.08v53.45h-21.16v-73.84h38.5l36.83,53.37c1.18,1.78,2.35,2.56,4.09,2.56,1.07,0,1.4-.59,1.4-2.83v-52.98h21.02v73.91h-38.38l-36.85-53.75"/>
    <polyline class="st0" points="1023.01 456.38 1023.01 483.46 1000.48 483.46 1000.48 409.55 1023.01 409.55 1023.01 434.49 1023.5 436.28 1025.46 436.97 1036.72 436.97 1065.93 409.55 1097.61 409.55 1055.53 445.38 1101.74 483.46 1069.23 483.46 1035.24 454.28 1025.15 454.28 1023.5 454.67 1023.01 456.38"/>
    <line class="st0" x1="171.36" y1="427.21" x2="171.36" y2="427.21"/>
  </g>
  <path class="st0" d="M1285.66,483.48c-1.85,0-3.34-1.49-3.34-3.34V32.84c0-1.85,1.49-3.34,3.34-3.34s3.34,1.49,3.34,3.34v447.3c0,1.85-1.49,3.34-3.34,3.34Z"/>
  <g>
    <g>
      <g>
        <path class="st0" d="M1763,265.23l30.33,34.93,12.98-22.23-22.83-26.53-20.48,13.84Z"/>
        <path class="st0" d="M1724.43,290.25l44.6,52.85,22.82-40.4-31.2-35.92-36.23,23.47Z"/>
        <path class="st0" d="M1762.31,98.31v164.03l20.03-13.53V111.85l-20.03-13.54Z"/>
        <path class="st0" d="M1723.74,73.27v214.11l35.79-23.18V96.45l-35.79-23.18Z"/>
        <path class="st0" d="M1915.81,96.45v167.75s35.79,23.18,35.79,23.18V73.27s-35.79,23.18-35.79,23.18Z"/>
        <path class="st0" d="M1762.99,95.43l20.48,13.85,22.83-26.54-12.98-22.23-30.33,34.92Z"/>
        <path class="st0" d="M1724.43,70.41l36.23,23.47,31.2-35.92-22.82-40.4-44.6,52.86Z"/>
        <path class="st0" d="M1771.64,344.13h132.21l-22.72-40.21h-86.77l-22.72,40.21Z"/>
        <path class="st0" d="M1795.97,301.14h83.56l-12.84-21.98h-57.88l-12.83,21.98Z"/>
        <path class="st0" d="M1879.53,59.36h-83.56l12.84,21.98h57.88l12.83-21.98Z"/>
        <path class="st0" d="M1869.18,277.93l12.99,22.23,30.32-34.93-20.48-13.84-22.84,26.53Z"/>
        <path class="st0" d="M1883.64,302.7l22.82,40.4,44.6-52.85-36.23-23.47-31.19,35.92Z"/>
        <path class="st0" d="M1893.16,248.81l20.02,13.53V98.31l-20.02,13.54v136.96Z"/>
        <path class="st0" d="M1794.36,56.74h86.77l22.72-40.22h-132.21l22.72,40.22Z"/>
        <path class="st0" d="M1869.18,82.73l22.84,26.54,20.48-13.85-30.32-34.92-12.99,22.23Z"/>
        <path class="st0" d="M1906.46,17.56l-22.82,40.4,31.19,35.92,36.23-23.47"/>
      </g>
      <g>
        <g>
          <polyline class="st0" points="1524.57 181.06 1524.57 74.93 1552.11 47.87 1628.72 47.87 1641.38 16.72 1539.45 16.72 1486.1 68.99 1486.1 291.86 1538.74 343.24 1551.2 312.09 1524.57 285.92 1524.57 182.79"/>
          <polygon class="st0" points="1655.17 284.93 1655.17 209.69 1628.36 183.73 1617.07 215.09 1617.07 279.47 1566.85 279.47 1554.34 310.62 1629.03 310.62 1655.17 284.93"/>
          <polygon class="st0" points="1627.02 180.43 1637.61 149.52 1566.48 149.52 1529.03 180.43 1627.02 180.43"/>
          <polygon class="st0" points="1615.06 213.7 1626.19 182.79 1526.93 182.79 1526.93 284.93 1552.15 309.72 1564.88 278.06 1564.88 213.7 1615.06 213.7"/>
          <polygon class="st0" points="1553.07 50.23 1526.93 75.92 1526.93 179.11 1564.88 147.79 1564.88 93.29 1564.85 81.38 1615.09 81.38 1627.75 50.23 1553.07 50.23"/>
          <polyline class="st0" points="1643.54 343.25 1684.92 302.59 1695.84 291.86 1695.84 203.77 1639.78 150.47 1629.51 180.43 1629.54 180.43 1629.23 181.3 1657.53 208.69 1657.53 285.92 1629.99 312.98 1553.39 312.98 1553.29 313.22 1540.92 344.13 1642.64 344.13"/>
          <polygon class="st0" points="1643.54 343.25 1684.92 302.59 1643.54 343.25 1643.54 343.25"/>
          <polygon class="st0" points="1629.23 181.3 1629.54 180.43 1629.51 180.43 1629.22 181.29 1629.23 181.3"/>
        </g>
        <polyline class="st0" points="1632.42 46.1 1631.56 48.29 1659.91 76.29 1659.86 93.21 1644.38 108.69 1679.1 108.82 1696.13 92.23 1696.13 68.94 1643.57 17.59"/>
        <polygon class="st0" points="1630.53 50.94 1657.11 77.14 1657.11 91.58 1646.53 102.05 1640.83 107.67 1617.51 84.2 1630.53 50.94"/>
      </g>
    </g>
    <g>
      <path class="st0" d="M1542.42,450.13v31.8h-20.77v-32.06l-34.74-57.7h22.05l23.98,39.88,23.98-39.88h20.38l-34.88,57.96Z"/>
      <path class="st0" d="M1659.72,465.26v16.67h-69.5v-89.76h67.84v16.67h-47.19v19.49h41.67v16.16h-41.67v20.77h48.84Z"/>
      <path class="st0" d="M1740.48,462.7h-41.67l-7.95,19.23h-21.29l40.01-89.76h20.52l40.12,89.76h-21.79l-7.95-19.23ZM1733.94,446.93l-14.24-34.36-14.23,34.36h28.46Z"/>
      <path class="st0" d="M1841.88,481.93l-17.31-25.01h-19.1v25.01h-20.77v-89.76h38.86c23.98,0,38.98,12.44,38.98,32.57,0,13.46-6.79,23.34-18.46,28.34l20.14,28.85h-22.32ZM1822.39,409.1h-16.93v31.29h16.93c12.69,0,19.1-5.9,19.1-15.65s-6.41-15.65-19.1-15.65Z"/>
      <path class="st0" d="M1876.97,473.09l7.05-15.65c7.57,5.52,18.86,9.36,29.62,9.36,12.31,0,17.31-4.1,17.31-9.62,0-16.79-52.19-5.26-52.19-38.59,0-15.26,12.31-27.95,37.83-27.95,11.29,0,22.83,2.69,31.17,7.95l-6.41,15.77c-8.34-4.74-16.93-7.05-24.88-7.05-12.31,0-17.05,4.61-17.05,10.26,0,16.54,52.19,5.13,52.19,38.08,0,15-12.45,27.83-38.08,27.83-14.24,0-28.6-4.23-36.55-10.39Z"/>
    </g>
  </g>
</svg>